<svg width="199" height="43" viewBox="0 0 199 43" fill="none" xmlns="http://www.w3.org/2000/svg">
<path d="M34.1875 36.125C34.3958 36.6667 34.5 37.2292 34.5 37.8125C34.5 38.3125 34.3958 38.8229 34.1875 39.3438C34 39.8438 33.7188 40.2917 33.3438 40.6875C32.9896 41.0833 32.5417 41.4062 32 41.6562C31.4792 41.9062 30.8854 42.0312 30.2188 42.0312C29.3854 42.0312 28.5938 41.8021 27.8438 41.3438C27.1146 40.8646 26.5833 40.2083 26.25 39.375L25.5625 37.6562H9.375L8.71875 39.375C8.36458 40.1875 7.83333 40.8333 7.125 41.3125C6.4375 41.7917 5.66667 42.0312 4.8125 42.0312C4.16667 42.0312 3.57292 41.9062 3.03125 41.6562C2.51042 41.4062 2.0625 41.0833 1.6875 40.6875C1.3125 40.2917 1.02083 39.8438 0.8125 39.3438C0.625 38.8229 0.53125 38.2917 0.53125 37.75C0.53125 37.2083 0.635417 36.6667 0.84375 36.125L13.3438 3.78125C13.5104 3.17708 13.8021 2.63542 14.2188 2.15625C14.6562 1.65625 15.1875 1.28125 15.8125 1.03125L16 0.96875C16.2917 0.84375 16.5833 0.770833 16.875 0.75C17.1875 0.729167 17.4375 0.71875 17.625 0.71875C17.8958 0.71875 18.1562 0.75 18.4062 0.8125C18.6562 0.854167 18.9062 0.927083 19.1562 1.03125L19.2188 1.0625C19.4688 1.10417 19.7396 1.26042 20.0312 1.53125C20.3229 1.78125 20.5625 1.98958 20.75 2.15625L20.9062 2.3125C21.1771 2.6875 21.3646 3.02083 21.4688 3.3125L21.5938 3.65625L34.1875 36.125ZM22.2188 29.0625L17.5 16.7812L12.75 29.0625H22.2188ZM38.2188 6.90625C38.2188 6.32292 38.3333 5.78125 38.5625 5.28125C38.7917 4.76042 39.0938 4.3125 39.4688 3.9375C39.8438 3.54167 40.2812 3.23958 40.7812 3.03125C41.3021 2.80208 41.8438 2.6875 42.4062 2.6875C42.9688 2.6875 43.5104 2.80208 44.0312 3.03125C44.5729 3.23958 45.0417 3.53125 45.4375 3.90625C45.8333 4.28125 46.1458 4.72917 46.375 5.25C46.625 5.77083 46.75 6.32292 46.75 6.90625V10.9062H56.3438C56.9062 10.9062 57.4375 11.0208 57.9375 11.25C58.4583 11.4583 58.9062 11.7604 59.2812 12.1562C59.6771 12.5312 59.9792 12.9792 60.1875 13.5C60.4167 14 60.5312 14.5312 60.5312 15.0938C60.5312 15.6562 60.4167 16.1771 60.1875 16.6562C59.9792 17.1354 59.6771 17.5625 59.2812 17.9375C58.9062 18.2917 58.4583 18.5729 57.9375 18.7812C57.4375 18.9896 56.9062 19.0938 56.3438 19.0938H46.75V27.1875C46.75 28.1458 46.9167 29.0417 47.25 29.875C47.6042 30.7083 48.0833 31.4375 48.6875 32.0625C49.2917 32.6875 50 33.1771 50.8125 33.5312C51.625 33.8854 52.5104 34.0625 53.4688 34.0625C54.3229 34.0625 55.1146 33.9479 55.8438 33.7188C56.5729 33.4896 57.2188 33.1146 57.7812 32.5938C58.2396 32.1771 58.7188 31.8438 59.2188 31.5938C59.7396 31.3229 60.3125 31.1875 60.9375 31.1875C61.3958 31.1875 61.8542 31.2917 62.3125 31.5C62.7708 31.6875 63.1667 31.9583 63.5 32.3125C63.8542 32.6667 64.1354 33.0833 64.3438 33.5625C64.5729 34.0208 64.6875 34.5208 64.6875 35.0625C64.6875 35.7083 64.5521 36.3438 64.2812 36.9688C64.0312 37.5938 63.6667 38.1458 63.1875 38.625C61.8958 39.875 60.4271 40.8125 58.7812 41.4375C57.1354 42.0625 55.3646 42.375 53.4688 42.375C51.3646 42.375 49.3854 41.9792 47.5312 41.1875C45.6771 40.375 44.0625 39.2812 42.6875 37.9062C41.3125 36.5312 40.2188 34.9167 39.4062 33.0625C38.6146 31.2083 38.2188 29.2292 38.2188 27.125V6.90625ZM75.0938 27.125C75.0938 28.0833 75.2708 28.9792 75.625 29.8125C76 30.6458 76.5 31.375 77.125 32C77.7708 32.625 78.5104 33.1146 79.3438 33.4688C80.1771 33.8229 81.0625 34 82 34C82.9583 34 83.8542 33.8229 84.6875 33.4688C85.5417 33.1146 86.2812 32.625 86.9062 32C87.5312 31.375 88.0208 30.6458 88.375 29.8125C88.75 28.9792 88.9375 28.0833 88.9375 27.125C88.9375 26.1667 88.75 25.2708 88.375 24.4375C88.0208 23.6042 87.5312 22.875 86.9062 22.25C86.2812 21.625 85.5417 21.1354 84.6875 20.7812C83.8542 20.4271 82.9583 20.25 82 20.25C81.0625 20.25 80.1771 20.4271 79.3438 20.7812C78.5104 21.1354 77.7708 21.625 77.125 22.25C76.5 22.875 76 23.6042 75.625 24.4375C75.2708 25.2708 75.0938 26.1667 75.0938 27.125ZM66.75 27.125C66.75 25.0208 67.1458 23.0417 67.9375 21.1875C68.75 19.3333 69.8438 17.7188 71.2188 16.3438C72.6146 14.9479 74.2292 13.8542 76.0625 13.0625C77.9167 12.25 79.8958 11.8438 82 11.8438C84.1042 11.8438 86.0833 12.25 87.9375 13.0625C89.7917 13.8542 91.4062 14.9479 92.7812 16.3438C94.1562 17.7188 95.2396 19.3333 96.0312 21.1875C96.8438 23.0417 97.25 25.0208 97.25 27.125C97.25 29.2292 96.8438 31.2083 96.0312 33.0625C95.2396 34.8958 94.1562 36.5 92.7812 37.875C91.4062 39.25 89.7917 40.3438 87.9375 41.1562C86.0833 41.9479 84.1042 42.3438 82 42.3438C79.8958 42.3438 77.9167 41.9479 76.0625 41.1562C74.2292 40.3438 72.6146 39.25 71.2188 37.875C69.8438 36.5 68.75 34.8958 67.9375 33.0625C67.1458 31.2083 66.75 29.2292 66.75 27.125ZM99.7188 17.75C99.4688 17.1875 99.3438 16.625 99.3438 16.0625C99.3438 15.5208 99.4479 15 99.6562 14.5C99.8646 13.9792 100.146 13.5312 100.5 13.1562C100.875 12.7604 101.312 12.4479 101.812 12.2188C102.333 11.9688 102.896 11.8438 103.5 11.8438C104.292 11.8438 105.031 12.0625 105.719 12.5C106.406 12.9375 106.927 13.5417 107.281 14.3125L113.031 28.0312L118.75 14.3438C119.062 13.5729 119.562 12.9688 120.25 12.5312C120.958 12.0938 121.708 11.875 122.5 11.875C123.104 11.875 123.656 11.9896 124.156 12.2188C124.677 12.4479 125.125 12.7604 125.5 13.1562C125.875 13.5521 126.167 14 126.375 14.5C126.583 15 126.688 15.5104 126.688 16.0312C126.708 16.3229 126.677 16.6146 126.594 16.9062C126.531 17.1979 126.438 17.4896 126.312 17.7812L116.875 39.5C116.583 40.1458 116.135 40.7188 115.531 41.2188C114.927 41.6979 114.167 41.9583 113.25 42C112.375 42 111.573 41.7812 110.844 41.3438C110.115 40.9062 109.573 40.2917 109.219 39.5L99.7188 17.75ZM137.719 30.8438C138.385 31.9271 139.25 32.7812 140.312 33.4062C141.375 34.0312 142.542 34.3438 143.812 34.3438C144.625 34.3438 145.271 34.2812 145.75 34.1562C146.25 34.0104 146.698 33.8229 147.094 33.5938C147.51 33.3229 147.917 33.1354 148.312 33.0312C148.729 32.9062 149.125 32.8438 149.5 32.8438C150.083 32.8438 150.615 32.9583 151.094 33.1875C151.594 33.4167 152.021 33.7292 152.375 34.125C152.75 34.5208 153.042 34.9792 153.25 35.5C153.458 36.0208 153.562 36.5625 153.562 37.125C153.562 37.8333 153.365 38.5104 152.969 39.1562C152.573 39.7812 151.969 40.3333 151.156 40.8125C150.344 41.2708 149.323 41.6458 148.094 41.9375C146.885 42.2083 145.458 42.3438 143.812 42.3438C141.708 42.3438 139.719 41.9479 137.844 41.1562C135.99 40.3438 134.365 39.25 132.969 37.875C131.573 36.5 130.469 34.8958 129.656 33.0625C128.844 31.2083 128.438 29.2292 128.438 27.125C128.438 25 128.844 23.0104 129.656 21.1562C130.469 19.3021 131.573 17.6875 132.969 16.3125C134.365 14.9167 135.99 13.8229 137.844 13.0312C139.719 12.2396 141.708 11.8438 143.812 11.8438C145.896 11.8438 147.854 12.2396 149.688 13.0312C151.542 13.8021 153.156 14.875 154.531 16.25C155.927 17.6042 157.031 19.1979 157.844 21.0312C158.677 22.8646 159.115 24.8229 159.156 26.9062C159.156 28.0938 158.771 29.0521 158 29.7812C157.25 30.4896 156.271 30.8438 155.062 30.8438H137.719ZM150.625 23.9062C150.042 22.6562 149.167 21.6562 148 20.9062C146.833 20.1562 145.49 19.7812 143.969 19.7812C142.406 19.7812 141.073 20.1771 139.969 20.9688C138.865 21.7396 138.031 22.7188 137.469 23.9062H150.625ZM163.5 4.875C163.5 4.25 163.615 3.67708 163.844 3.15625C164.094 2.61458 164.417 2.14583 164.812 1.75C165.229 1.33333 165.708 1.01042 166.25 0.78125C166.792 0.552083 167.365 0.4375 167.969 0.4375C168.573 0.4375 169.146 0.552083 169.688 0.78125C170.229 1.01042 170.698 1.33333 171.094 1.75C171.51 2.14583 171.833 2.61458 172.062 3.15625C172.312 3.67708 172.438 4.25 172.438 4.875C172.438 5.47917 172.312 6.05208 172.062 6.59375C171.833 7.13542 171.51 7.61458 171.094 8.03125C170.698 8.42708 170.229 8.73958 169.688 8.96875C169.146 9.19792 168.573 9.3125 167.969 9.3125C167.365 9.3125 166.792 9.19792 166.25 8.96875C165.708 8.73958 165.229 8.42708 164.812 8.03125C164.417 7.61458 164.094 7.13542 163.844 6.59375C163.615 6.05208 163.5 5.47917 163.5 4.875ZM163.75 15.9688C163.75 15.4062 163.865 14.875 164.094 14.375C164.323 13.875 164.625 13.4375 165 13.0625C165.396 12.6875 165.854 12.3958 166.375 12.1875C166.896 11.9583 167.448 11.8438 168.031 11.8438C168.594 11.8438 169.125 11.9583 169.625 12.1875C170.125 12.3958 170.552 12.6875 170.906 13.0625C171.281 13.4375 171.573 13.875 171.781 14.375C171.99 14.875 172.094 15.4062 172.094 15.9688V38.2188C172.094 38.7812 171.979 39.3125 171.75 39.8125C171.542 40.3125 171.25 40.75 170.875 41.125C170.5 41.5 170.062 41.7917 169.562 42C169.062 42.2292 168.531 42.3438 167.969 42.3438C167.406 42.3438 166.865 42.2292 166.344 42C165.844 41.7917 165.396 41.5 165 41.125C164.625 40.75 164.323 40.3125 164.094 39.8125C163.865 39.3125 163.75 38.7812 163.75 38.2188V15.9688ZM178.156 27.4062C178.219 25.2812 178.677 23.2812 179.531 21.4062C180.385 19.5312 181.521 17.8958 182.938 16.5C184.375 15.0833 186.031 13.9688 187.906 13.1562C189.802 12.3229 191.812 11.8854 193.938 11.8438H194.219C195.594 11.8646 196.646 12.2604 197.375 13.0312C198.125 13.8021 198.5 14.7812 198.5 15.9688C198.5 16.5729 198.385 17.125 198.156 17.625C197.927 18.125 197.615 18.5625 197.219 18.9375C196.844 19.3125 196.385 19.6042 195.844 19.8125C195.323 20.0208 194.771 20.125 194.188 20.125C193.146 20.125 192.156 20.3229 191.219 20.7188C190.302 21.1146 189.49 21.6562 188.781 22.3438C188.094 23.0312 187.542 23.8438 187.125 24.7812C186.708 25.6979 186.49 26.6875 186.469 27.75V37.9062C186.469 38.4896 186.365 39.0312 186.156 39.5312C185.948 40.0312 185.656 40.4688 185.281 40.8438C184.906 41.1979 184.469 41.4792 183.969 41.6875C183.49 41.8958 182.969 42 182.406 42C181.844 42 181.302 41.8958 180.781 41.6875C180.26 41.4792 179.802 41.1979 179.406 40.8438C179.031 40.4688 178.729 40.0312 178.5 39.5312C178.271 39.0312 178.156 38.4896 178.156 37.9062V27.4062Z" fill="white"/>
</svg>
